<?xml version="1.0" encoding="UTF-8" standalone="no"?>
<svg
   viewBox="0 0 793.7007874015749 1122.5196850393702"
   width="793.7007874015749"
   height="1122.5196850393702"
   version="1.1"
   id="svg103"
   xmlns="http://www.w3.org/2000/svg"
   xmlns:svg="http://www.w3.org/2000/svg">
  <desc
     id="desc1">Gehäuse - Hinten.dxf - scale = 1.000000, origin = (0.000000, 0.000000), method = manual</desc>
  <defs
     id="defs4">
    <marker
       id="DistanceX"
       orient="auto"
       refX="0.0"
       refY="0.0"
       style="overflow:visible">
      <path
         d="M 3,-3 L -3,3 M 0,-5 L  0,5"
         style="stroke:#000000; stroke-width:0.5"
         id="path1" />
    </marker>
    <pattern
       id="Hatch"
       patternUnits="userSpaceOnUse"
       width="8"
       height="8"
       x="0"
       y="0">
      <path
         d="M8 4 l-4,4"
         stroke="#000000"
         stroke-width="0.25"
         linecap="square"
         id="path2" />
      <path
         d="M6 2 l-4,4"
         stroke="#000000"
         stroke-width="0.25"
         linecap="square"
         id="path3" />
      <path
         d="M4 0 l-4,4"
         stroke="#000000"
         stroke-width="0.25"
         linecap="square"
         id="path4" />
    </pattern>
    <symbol
       id="$MODEL_SPACE" />
    <symbol
       id="$PAPER_SPACE" />
  </defs>
  <g
     id="g4" />
  <g
     id="g5" />
  <g
     id="g6" />
  <g
     id="g7" />
  <g
     id="g8" />
  <g
     id="g9" />
  <g
     id="g10" />
  <g
     id="g11" />
  <g
     id="g12" />
  <g
     id="g13" />
  <g
     id="g14" />
  <g
     id="g15" />
  <g
     id="g16" />
  <g
     id="g17" />
  <g
     id="g18" />
  <g
     id="g19" />
  <g
     id="g20" />
  <g
     id="g21" />
  <g
     id="g22" />
  <g
     id="g23" />
  <g
     id="g24" />
  <g
     id="g25" />
  <g
     id="g26" />
  <g
     id="g27" />
  <g
     id="g28" />
  <g
     id="g29" />
  <g
     id="g30" />
  <g
     id="g31" />
  <g
     id="g32" />
  <g
     id="g33" />
  <g
     id="g34" />
  <g
     id="g35" />
  <g
     id="g36" />
  <g
     id="g37" />
  <g
     id="g38" />
  <g
     id="g39" />
  <g
     id="g94">
    <path
       d="m 740.40946,1041.4133 a 5.291339,5.291339 0 0 0 -10.58268,0 5.291339,5.291339 0 0 0 10.58268,0 z"
       style="fill:none;stroke:#000000"
       id="path39" />
    <path
       d="m 63.874025,1041.4133 a 5.291339,5.291339 0 0 0 -10.582677,0 5.291339,5.291339 0 0 0 10.582677,0 z"
       style="fill:none;stroke:#000000"
       id="path40" />
    <path
       d="m 63.874025,760.63215 a 5.291339,5.291339 0 0 0 -10.582677,0 5.291339,5.291339 0 0 0 10.582677,0 z"
       style="fill:none;stroke:#000000"
       id="path41" />
    <path
       d="m 740.40946,760.63215 a 5.291339,5.291339 0 0 0 -10.58268,0 5.291339,5.291339 0 0 0 10.58268,0 z"
       style="fill:none;stroke:#000000"
       id="path42" />
    <path
       style="fill:none;stroke:#000000"
       d="M 536.6934,1069.7586 H 472.441"
       id="path43" />
    <path
       style="fill:none;stroke:#000000"
       d="m 536.6934,1069.7586 v 11.34"
       id="path44" />
    <path
       style="fill:none;stroke:#000000"
       d="m 612.2834,1081.0986 h -75.59"
       id="path45" />
    <path
       style="fill:none;stroke:#000000"
       d="m 612.2834,1069.7586 v 11.34"
       id="path46" />
    <path
       style="fill:none;stroke:#000000"
       d="m 687.8744,1069.7586 h -75.591"
       id="path47" />
    <path
       style="fill:none;stroke:#000000"
       d="m 687.8744,1069.7586 v 11.34"
       id="path48" />
    <path
       style="fill:none;stroke:#000000"
       d="m 763.4644,1081.0986 h -75.59"
       id="path49" />
    <path
       style="fill:none;stroke:#000000"
       d="m 763.4644,994.16861 v 86.92999"
       id="path50" />
    <path
       style="fill:none;stroke:#000000"
       d="m 763.4644,994.16861 h 11.339"
       id="path51" />
    <path
       style="fill:none;stroke:#000000"
       d="m 774.8034,938.81761 v 55.351"
       id="path52" />
    <path
       style="fill:none;stroke:#000000"
       d="m 774.8034,938.81761 h -11.339"
       id="path53" />
    <path
       style="fill:none;stroke:#000000"
       d="m 763.4644,863.22761 v 75.59"
       id="path54" />
    <path
       style="fill:none;stroke:#000000"
       d="m 774.8034,863.22761 h -11.339"
       id="path55" />
    <path
       style="fill:none;stroke:#000000"
       d="m 774.8034,796.53761 v 66.69"
       id="path56" />
    <path
       style="fill:none;stroke:#000000"
       d="m 763.4644,796.53761 h 11.339"
       id="path57" />
    <path
       style="fill:none;stroke:#000000"
       d="m 763.4644,720.94761 v 75.59"
       id="path58" />
    <path
       style="fill:none;stroke:#000000"
       d="m 687.8744,720.94761 h 75.59"
       id="path59" />
    <path
       style="fill:none;stroke:#000000"
       d="m 687.8744,732.28561 v -11.338"
       id="path60" />
    <path
       style="fill:none;stroke:#000000"
       d="m 687.8744,732.28561 h -75.591"
       id="path61" />
    <path
       style="fill:none;stroke:#000000"
       d="m 612.2834,732.28561 v -11.338"
       id="path62" />
    <path
       style="fill:none;stroke:#000000"
       d="m 536.6934,720.94761 h 75.59"
       id="path63" />
    <path
       style="fill:none;stroke:#000000"
       d="m 536.6934,732.28561 v -11.338"
       id="path64" />
    <path
       style="fill:none;stroke:#000000"
       d="M 536.6934,732.28561 H 472.441"
       id="path65" />
    <path
       style="fill:none;stroke:#000000"
       d="m 472.441,732.28561 v -11.338"
       id="path66" />
    <path
       style="fill:none;stroke:#000000"
       d="M 321.2598,720.94761 H 472.441"
       id="path67" />
    <path
       style="fill:none;stroke:#000000"
       d="m 321.2598,732.28561 v -11.338"
       id="path68" />
    <path
       style="fill:none;stroke:#000000"
       d="m 257.0074,732.28561 h 64.2524"
       id="path69" />
    <path
       style="fill:none;stroke:#000000"
       d="m 257.0074,732.28561 v -11.338"
       id="path70" />
    <path
       style="fill:none;stroke:#000000"
       d="m 181.4174,720.94761 h 75.59"
       id="path71" />
    <path
       style="fill:none;stroke:#000000"
       d="m 181.4174,732.28561 v -11.338"
       id="path72" />
    <path
       style="fill:none;stroke:#000000"
       d="m 105.8264,732.28561 h 75.591"
       id="path73" />
    <path
       style="fill:none;stroke:#000000"
       d="m 105.8264,732.28561 v -11.338"
       id="path74" />
    <path
       style="fill:none;stroke:#000000"
       d="M 30.236403,720.94761 H 105.8264"
       id="path75" />
    <path
       style="fill:none;stroke:#000000"
       d="m 30.236403,720.94761 v 75.59"
       id="path76" />
    <path
       style="fill:none;stroke:#000000"
       d="m 18.897403,796.53761 h 11.339"
       id="path77" />
    <path
       style="fill:none;stroke:#000000"
       d="m 18.897403,796.53761 v 66.69"
       id="path78" />
    <path
       style="fill:none;stroke:#000000"
       d="m 18.897403,863.22761 h 11.339"
       id="path79" />
    <path
       style="fill:none;stroke:#000000"
       d="m 30.236403,863.22761 v 75.59"
       id="path80" />
    <path
       style="fill:none;stroke:#000000"
       d="m 18.897403,938.81761 h 11.339"
       id="path81" />
    <path
       style="fill:none;stroke:#000000"
       d="m 18.897403,938.81761 v 55.351"
       id="path82" />
    <path
       style="fill:none;stroke:#000000"
       d="m 18.897403,994.16861 h 11.339"
       id="path83" />
    <path
       style="fill:none;stroke:#000000"
       d="M 30.236403,1081.0986 V 994.16861"
       id="path84" />
    <path
       style="fill:none;stroke:#000000"
       d="M 105.8264,1081.0986 H 30.236403"
       id="path85" />
    <path
       style="fill:none;stroke:#000000"
       d="m 105.8264,1069.7586 v 11.34"
       id="path86" />
    <path
       style="fill:none;stroke:#000000"
       d="m 105.8264,1069.7586 h 75.591"
       id="path87" />
    <path
       style="fill:none;stroke:#000000"
       d="m 181.4174,1069.7586 v 11.34"
       id="path88" />
    <path
       style="fill:none;stroke:#000000"
       d="m 257.0074,1081.0986 h -75.59"
       id="path89" />
    <path
       style="fill:none;stroke:#000000"
       d="m 257.0074,1069.7586 v 11.34"
       id="path90" />
    <path
       style="fill:none;stroke:#000000"
       d="m 257.0074,1069.7586 h 64.2524"
       id="path91" />
    <path
       style="fill:none;stroke:#000000"
       d="m 321.2598,1069.7586 v 11.34"
       id="path92" />
    <path
       style="fill:none;stroke:#000000"
       d="M 472.441,1081.0986 H 321.2598"
       id="path93" />
    <path
       style="fill:none;stroke:#000000"
       d="m 472.441,1069.7586 v 11.34"
       id="path94" />
  </g>
  <g
     id="g95" />
  <g
     id="g96" />
  <g
     id="g97" />
  <g
     id="g98" />
  <g
     id="g99" />
  <g
     id="g100" />
  <g
     id="g101" />
  <g
     id="g102" />
  <g
     id="g103" />
</svg>
