<?xml version="1.0" encoding="UTF-8" standalone="no"?>
<svg
   viewBox="0 0 793.7007874015749 1122.5196850393702"
   width="793.7007874015749"
   height="1122.5196850393702"
   version="1.1"
   id="svg127"
   xmlns="http://www.w3.org/2000/svg"
   xmlns:svg="http://www.w3.org/2000/svg">
  <desc
     id="desc1">Gehäuse - Gesicht.dxf - scale = 1.000000, origin = (0.000000, 0.000000), method = manual</desc>
  <defs
     id="defs4">
    <marker
       id="DistanceX"
       orient="auto"
       refX="0.0"
       refY="0.0"
       style="overflow:visible">
      <path
         d="M 3,-3 L -3,3 M 0,-5 L  0,5"
         style="stroke:#000000; stroke-width:0.5"
         id="path1" />
    </marker>
    <pattern
       id="Hatch"
       patternUnits="userSpaceOnUse"
       width="8"
       height="8"
       x="0"
       y="0">
      <path
         d="M8 4 l-4,4"
         stroke="#000000"
         stroke-width="0.25"
         linecap="square"
         id="path2" />
      <path
         d="M6 2 l-4,4"
         stroke="#000000"
         stroke-width="0.25"
         linecap="square"
         id="path3" />
      <path
         d="M4 0 l-4,4"
         stroke="#000000"
         stroke-width="0.25"
         linecap="square"
         id="path4" />
    </pattern>
    <symbol
       id="*MODEL_SPACE" />
    <symbol
       id="*PAPER_SPACE" />
  </defs>
  <g
     id="g4" />
  <g
     id="g5" />
  <g
     id="g6" />
  <g
     id="g7" />
  <g
     id="g8" />
  <g
     id="g9" />
  <g
     id="g10" />
  <g
     id="g11" />
  <g
     id="g12" />
  <g
     id="g13" />
  <g
     id="g14" />
  <g
     id="g15" />
  <g
     id="g16" />
  <g
     id="g17" />
  <g
     id="g18" />
  <g
     id="g19" />
  <g
     id="g20" />
  <g
     id="g21" />
  <g
     id="g22" />
  <g
     id="g23" />
  <g
     id="g24" />
  <g
     id="g25" />
  <g
     id="g26" />
  <g
     id="g27" />
  <g
     id="g28" />
  <g
     id="g29" />
  <g
     id="g30" />
  <g
     id="g31" />
  <g
     id="g32" />
  <g
     id="g33" />
  <g
     id="g34" />
  <g
     id="g35" />
  <g
     id="g36" />
  <g
     id="g37" />
  <g
     id="g38" />
  <g
     id="g39" />
  <g
     id="g118">
    <path
       d="m 740.40946,738.32584 a 5.291339,5.291339 0 0 0 -10.58268,0 5.291339,5.291339 0 0 0 10.58268,0 z"
       style="fill:none;stroke:#000000"
       id="path39" />
    <path
       d="m 63.874025,738.32584 a 5.291339,5.291339 0 0 0 -10.582677,0 5.291339,5.291339 0 0 0 10.582677,0 z"
       style="fill:none;stroke:#000000"
       id="path40" />
    <path
       d="m 63.874025,1019.1069 a 5.291339,5.291339 0 0 0 -10.582677,0 5.291339,5.291339 0 0 0 10.582677,0 z"
       style="fill:none;stroke:#000000"
       id="path41" />
    <path
       d="m 740.40946,1019.1069 a 5.291339,5.291339 0 0 0 -10.58268,0 5.291339,5.291339 0 0 0 10.58268,0 z"
       style="fill:none;stroke:#000000"
       id="path42" />
    <path
       d="m 642.85402,912.73214 a 3.779528,3.779528 0 0 0 -7.55905,0 3.779528,3.779528 0 0 0 7.55905,0 z"
       style="fill:none;stroke:#000000"
       id="path43" />
    <path
       d="m 583.93702,946.74789 a 3.779528,3.779528 0 0 0 -7.55906,0 3.779528,3.779528 0 0 0 7.55906,0 z"
       style="fill:none;stroke:#000000"
       id="path44" />
    <path
       d="m 525.02001,912.73214 a 3.779528,3.779528 0 0 0 -7.55905,0 3.779528,3.779528 0 0 0 7.55905,0 z"
       style="fill:none;stroke:#000000"
       id="path45" />
    <path
       d="m 276.23985,912.73214 a 3.779528,3.779528 0 0 0 -7.55906,0 3.779528,3.779528 0 0 0 7.55906,0 z"
       style="fill:none;stroke:#000000"
       id="path46" />
    <path
       d="m 276.23985,844.70064 a 3.779528,3.779528 0 0 0 -7.55906,0 3.779528,3.779528 0 0 0 7.55906,0 z"
       style="fill:none;stroke:#000000"
       id="path47" />
    <path
       d="m 217.32284,810.68489 a 3.779528,3.779528 0 0 0 -7.55905,0 3.779528,3.779528 0 0 0 7.55905,0 z"
       style="fill:none;stroke:#000000"
       id="path48" />
    <path
       d="m 158.40584,844.70064 a 3.779528,3.779528 0 0 0 -7.55906,0 3.779528,3.779528 0 0 0 7.55906,0 z"
       style="fill:none;stroke:#000000"
       id="path49" />
    <path
       d="m 158.40584,912.73214 a 3.779528,3.779528 0 0 0 -7.55906,0 3.779528,3.779528 0 0 0 7.55906,0 z"
       style="fill:none;stroke:#000000"
       id="path50" />
    <path
       d="m 642.85402,844.70064 a 3.779528,3.779528 0 0 0 -7.55905,0 3.779528,3.779528 0 0 0 7.55905,0 z"
       style="fill:none;stroke:#000000"
       id="path51" />
    <path
       d="m 583.93702,810.68489 a 3.779528,3.779528 0 0 0 -7.55906,0 3.779528,3.779528 0 0 0 7.55906,0 z"
       style="fill:none;stroke:#000000"
       id="path52" />
    <path
       d="m 525.02001,844.70064 a 3.779528,3.779528 0 0 0 -7.55905,0 3.779528,3.779528 0 0 0 7.55905,0 z"
       style="fill:none;stroke:#000000"
       id="path53" />
    <path
       d="m 217.32284,946.74789 a 3.779528,3.779528 0 0 0 -7.55905,0 3.779528,3.779528 0 0 0 7.55905,0 z"
       style="fill:none;stroke:#000000"
       id="path54" />
    <path
       style="fill:none;stroke:#000000"
       d="m 247.3664,820.13111 33.822,58.59"
       id="path55" />
    <path
       style="fill:none;stroke:#000000"
       d="m 281.1884,878.72111 -33.822,58.58"
       id="path56" />
    <path
       style="fill:none;stroke:#000000"
       d="m 247.3664,937.30111 h -67.646"
       id="path57" />
    <path
       style="fill:none;stroke:#000000"
       d="m 179.7204,937.30111 -33.823,-58.58"
       id="path58" />
    <path
       style="fill:none;stroke:#000000"
       d="m 145.8974,878.72111 33.823,-58.59"
       id="path59" />
    <path
       style="fill:none;stroke:#000000"
       d="m 179.7204,820.13111 h 67.646"
       id="path60" />
    <path
       style="fill:none;stroke:#000000"
       d="m 546.3344,937.30111 h 67.646"
       id="path61" />
    <path
       style="fill:none;stroke:#000000"
       d="m 512.5124,878.72111 33.822,58.58"
       id="path62" />
    <path
       style="fill:none;stroke:#000000"
       d="m 546.3344,820.13111 -33.822,58.59"
       id="path63" />
    <path
       style="fill:none;stroke:#000000"
       d="m 613.9804,820.13111 h -67.646"
       id="path64" />
    <path
       style="fill:none;stroke:#000000"
       d="m 647.8034,878.72111 -33.823,-58.59"
       id="path65" />
    <path
       style="fill:none;stroke:#000000"
       d="m 613.9804,937.30111 33.823,-58.58"
       id="path66" />
    <path
       style="fill:none;stroke:#000000"
       d="m 763.4644,785.57111 v -86.93"
       id="path67" />
    <path
       style="fill:none;stroke:#000000"
       d="m 763.4644,698.64111 h -75.59"
       id="path68" />
    <path
       style="fill:none;stroke:#000000"
       d="m 687.8744,709.98111 v -11.34"
       id="path69" />
    <path
       style="fill:none;stroke:#000000"
       d="m 687.8744,709.98111 h -75.591"
       id="path70" />
    <path
       style="fill:none;stroke:#000000"
       d="m 612.2834,709.98111 v -11.34"
       id="path71" />
    <path
       style="fill:none;stroke:#000000"
       d="m 612.2834,698.64111 h -75.59"
       id="path72" />
    <path
       style="fill:none;stroke:#000000"
       d="m 536.6934,698.64111 v 11.34"
       id="path73" />
    <path
       style="fill:none;stroke:#000000"
       d="M 536.6934,709.98111 H 472.441"
       id="path74" />
    <path
       style="fill:none;stroke:#000000"
       d="m 472.441,709.98111 v -11.34"
       id="path75" />
    <path
       style="fill:none;stroke:#000000"
       d="M 472.441,698.64111 H 321.2598"
       id="path76" />
    <path
       style="fill:none;stroke:#000000"
       d="m 321.2598,698.64111 v 11.34"
       id="path77" />
    <path
       style="fill:none;stroke:#000000"
       d="M 321.2598,709.98111 H 257.0074"
       id="path78" />
    <path
       style="fill:none;stroke:#000000"
       d="m 257.0074,709.98111 v -11.34"
       id="path79" />
    <path
       style="fill:none;stroke:#000000"
       d="m 257.0074,698.64111 h -75.59"
       id="path80" />
    <path
       style="fill:none;stroke:#000000"
       d="m 181.4174,698.64111 v 11.34"
       id="path81" />
    <path
       style="fill:none;stroke:#000000"
       d="m 181.4174,709.98111 h -75.591"
       id="path82" />
    <path
       style="fill:none;stroke:#000000"
       d="m 105.8264,709.98111 v -11.34"
       id="path83" />
    <path
       style="fill:none;stroke:#000000"
       d="M 105.8264,698.64111 H 30.236403"
       id="path84" />
    <path
       style="fill:none;stroke:#000000"
       d="m 30.236403,698.64111 v 86.93"
       id="path85" />
    <path
       style="fill:none;stroke:#000000"
       d="m 30.236403,785.57111 h -11.339"
       id="path86" />
    <path
       style="fill:none;stroke:#000000"
       d="m 18.897403,785.57111 v 55.35"
       id="path87" />
    <path
       style="fill:none;stroke:#000000"
       d="m 18.897403,840.92111 h 11.339"
       id="path88" />
    <path
       style="fill:none;stroke:#000000"
       d="m 30.236403,840.92111 v 75.59"
       id="path89" />
    <path
       style="fill:none;stroke:#000000"
       d="m 30.236403,916.51111 h -11.339"
       id="path90" />
    <path
       style="fill:none;stroke:#000000"
       d="m 18.897403,916.51111 v 66.69"
       id="path91" />
    <path
       style="fill:none;stroke:#000000"
       d="m 18.897403,983.20111 h 11.339"
       id="path92" />
    <path
       style="fill:none;stroke:#000000"
       d="m 30.236403,983.20111 v 75.58999"
       id="path93" />
    <path
       style="fill:none;stroke:#000000"
       d="M 30.236403,1058.7911 H 105.8264"
       id="path94" />
    <path
       style="fill:none;stroke:#000000"
       d="m 105.8264,1058.7911 v -11.34"
       id="path95" />
    <path
       style="fill:none;stroke:#000000"
       d="m 105.8264,1047.4511 h 75.591"
       id="path96" />
    <path
       style="fill:none;stroke:#000000"
       d="m 181.4174,1047.4511 v 11.34"
       id="path97" />
    <path
       style="fill:none;stroke:#000000"
       d="m 181.4174,1058.7911 h 75.59"
       id="path98" />
    <path
       style="fill:none;stroke:#000000"
       d="m 257.0074,1058.7911 v -11.34"
       id="path99" />
    <path
       style="fill:none;stroke:#000000"
       d="m 257.0074,1047.4511 h 64.2524"
       id="path100" />
    <path
       style="fill:none;stroke:#000000"
       d="m 321.2598,1047.4511 v 11.34"
       id="path101" />
    <path
       style="fill:none;stroke:#000000"
       d="M 321.2598,1058.7911 H 472.441"
       id="path102" />
    <path
       style="fill:none;stroke:#000000"
       d="m 472.441,1058.7911 v -11.34"
       id="path103" />
    <path
       style="fill:none;stroke:#000000"
       d="m 472.441,1047.4511 h 64.2524"
       id="path104" />
    <path
       style="fill:none;stroke:#000000"
       d="m 536.6934,1047.4511 v 11.34"
       id="path105" />
    <path
       style="fill:none;stroke:#000000"
       d="m 536.6934,1058.7911 h 75.59"
       id="path106" />
    <path
       style="fill:none;stroke:#000000"
       d="m 612.2834,1058.7911 v -11.34"
       id="path107" />
    <path
       style="fill:none;stroke:#000000"
       d="m 612.2834,1047.4511 h 75.591"
       id="path108" />
    <path
       style="fill:none;stroke:#000000"
       d="m 687.8744,1047.4511 v 11.34"
       id="path109" />
    <path
       style="fill:none;stroke:#000000"
       d="m 687.8744,1058.7911 h 75.59"
       id="path110" />
    <path
       style="fill:none;stroke:#000000"
       d="M 763.4644,1058.7911 V 983.20111"
       id="path111" />
    <path
       style="fill:none;stroke:#000000"
       d="m 763.4644,983.20111 h 11.339"
       id="path112" />
    <path
       style="fill:none;stroke:#000000"
       d="m 774.8034,983.20111 v -66.69"
       id="path113" />
    <path
       style="fill:none;stroke:#000000"
       d="m 774.8034,916.51111 h -11.339"
       id="path114" />
    <path
       style="fill:none;stroke:#000000"
       d="m 763.4644,916.51111 v -75.59"
       id="path115" />
    <path
       style="fill:none;stroke:#000000"
       d="m 763.4644,840.92111 h 11.339"
       id="path116" />
    <path
       style="fill:none;stroke:#000000"
       d="m 774.8034,840.92111 v -55.35"
       id="path117" />
    <path
       style="fill:none;stroke:#000000"
       d="m 774.8034,785.57111 h -11.339"
       id="path118" />
  </g>
  <g
     id="g119" />
  <g
     id="g120" />
  <g
     id="g121" />
  <g
     id="g122" />
  <g
     id="g123" />
  <g
     id="g124" />
  <g
     id="g125" />
  <g
     id="g126" />
  <g
     id="g127" />
</svg>
