<?xml version="1.0" encoding="UTF-8" standalone="no"?>
<svg
   viewBox="0 0 793.7007874015749 1122.5196850393702"
   width="793.7007874015749"
   height="1122.5196850393702"
   version="1.1"
   id="svg85"
   xmlns="http://www.w3.org/2000/svg"
   xmlns:svg="http://www.w3.org/2000/svg">
  <desc
     id="desc1">Gehäuse - Seite.dxf - scale = 1.000000, origin = (0.000000, 0.000000), method = manual</desc>
  <defs
     id="defs4">
    <marker
       id="DistanceX"
       orient="auto"
       refX="0.0"
       refY="0.0"
       style="overflow:visible">
      <path
         d="M 3,-3 L -3,3 M 0,-5 L  0,5"
         style="stroke:#000000; stroke-width:0.5"
         id="path1" />
    </marker>
    <pattern
       id="Hatch"
       patternUnits="userSpaceOnUse"
       width="8"
       height="8"
       x="0"
       y="0">
      <path
         d="M8 4 l-4,4"
         stroke="#000000"
         stroke-width="0.25"
         linecap="square"
         id="path2" />
      <path
         d="M6 2 l-4,4"
         stroke="#000000"
         stroke-width="0.25"
         linecap="square"
         id="path3" />
      <path
         d="M4 0 l-4,4"
         stroke="#000000"
         stroke-width="0.25"
         linecap="square"
         id="path4" />
    </pattern>
    <symbol
       id="*MODEL_SPACE" />
    <symbol
       id="*PAPER_SPACE" />
  </defs>
  <g
     id="g4" />
  <g
     id="g5" />
  <g
     id="g6" />
  <g
     id="g7" />
  <g
     id="g8" />
  <g
     id="g9" />
  <g
     id="g10" />
  <g
     id="g11" />
  <g
     id="g12" />
  <g
     id="g13" />
  <g
     id="g14" />
  <g
     id="g15" />
  <g
     id="g16" />
  <g
     id="g17" />
  <g
     id="g18" />
  <g
     id="g19" />
  <g
     id="g20" />
  <g
     id="g21" />
  <g
     id="g22" />
  <g
     id="g23" />
  <g
     id="g24" />
  <g
     id="g25" />
  <g
     id="g26" />
  <g
     id="g27" />
  <g
     id="g28" />
  <g
     id="g29" />
  <g
     id="g30" />
  <g
     id="g31" />
  <g
     id="g32" />
  <g
     id="g33" />
  <g
     id="g34" />
  <g
     id="g35" />
  <g
     id="g36" />
  <g
     id="g37" />
  <g
     id="g38" />
  <g
     id="g39" />
  <g
     id="g76">
    <path
       d="m 396.3504,679.785 a 5.291339,5.291339 0 0 0 -10.58267,0 5.291339,5.291339 0 0 0 10.58267,0 z"
       style="fill:none;stroke:#000000"
       id="path39" />
    <path
       d="m 115.5693,1035.0606 a 5.291339,5.291339 0 0 0 -10.58268,0 5.291339,5.291339 0 0 0 10.58268,0 z"
       style="fill:none;stroke:#000000"
       id="path40" />
    <path
       d="m 396.3504,1035.0606 a 5.291339,5.291339 0 0 0 -10.58267,0 5.291339,5.291339 0 0 0 10.58267,0 z"
       style="fill:none;stroke:#000000"
       id="path41" />
    <path
       d="m 115.5693,679.785 a 5.291339,5.291339 0 0 0 -10.58268,0 5.291339,5.291339 0 0 0 10.58268,0 z"
       style="fill:none;stroke:#000000"
       id="path42" />
    <path
       style="fill:none;stroke:#000000"
       d="m 70.593104,984.98311 h 11.338"
       id="path43" />
    <path
       style="fill:none;stroke:#000000"
       d="M 70.593104,1074.7431 V 984.98311"
       id="path44" />
    <path
       style="fill:none;stroke:#000000"
       d="M 70.593104,1074.7431 H 146.1831"
       id="path45" />
    <path
       style="fill:none;stroke:#000000"
       d="m 146.1831,1074.7431 v -11.34"
       id="path46" />
    <path
       style="fill:none;stroke:#000000"
       d="m 146.1831,1063.4031 h 66.69"
       id="path47" />
    <path
       style="fill:none;stroke:#000000"
       d="m 212.8731,1063.4031 v 11.34"
       id="path48" />
    <path
       style="fill:none;stroke:#000000"
       d="m 212.8731,1074.7431 h 75.591"
       id="path49" />
    <path
       style="fill:none;stroke:#000000"
       d="m 288.4641,1063.4031 v 11.34"
       id="path50" />
    <path
       style="fill:none;stroke:#000000"
       d="M 288.4641,1063.4031 H 343.815"
       id="path51" />
    <path
       style="fill:none;stroke:#000000"
       d="m 343.815,1074.7431 v -11.34"
       id="path52" />
    <path
       style="fill:none;stroke:#000000"
       d="m 343.815,1074.7431 h 86.9291"
       id="path53" />
    <path
       style="fill:none;stroke:#000000"
       d="m 430.7441,984.98311 v 89.75999"
       id="path54" />
    <path
       style="fill:none;stroke:#000000"
       d="M 430.7441,984.98311 H 419.4055"
       id="path55" />
    <path
       style="fill:none;stroke:#000000"
       d="m 419.4055,984.98311 v -255.119"
       id="path56" />
    <path
       style="fill:none;stroke:#000000"
       d="m 419.4055,729.86411 h 11.3386"
       id="path57" />
    <path
       style="fill:none;stroke:#000000"
       d="m 430.7441,640.10011 v 89.764"
       id="path58" />
    <path
       style="fill:none;stroke:#000000"
       d="M 430.7441,640.10011 H 343.815"
       id="path59" />
    <path
       style="fill:none;stroke:#000000"
       d="m 343.815,640.10011 v 11.338"
       id="path60" />
    <path
       style="fill:none;stroke:#000000"
       d="M 288.4641,651.43811 H 343.815"
       id="path61" />
    <path
       style="fill:none;stroke:#000000"
       d="m 288.4641,640.10011 v 11.338"
       id="path62" />
    <path
       style="fill:none;stroke:#000000"
       d="m 212.8731,640.10011 h 75.591"
       id="path63" />
    <path
       style="fill:none;stroke:#000000"
       d="m 212.8731,640.10011 v 11.338"
       id="path64" />
    <path
       style="fill:none;stroke:#000000"
       d="m 146.1831,651.43811 h 66.69"
       id="path65" />
    <path
       style="fill:none;stroke:#000000"
       d="m 146.1831,640.10011 v 11.338"
       id="path66" />
    <path
       style="fill:none;stroke:#000000"
       d="M 146.1831,640.10011 H 70.593104"
       id="path67" />
    <path
       style="fill:none;stroke:#000000"
       d="m 70.593104,729.86411 v -89.764"
       id="path68" />
    <path
       style="fill:none;stroke:#000000"
       d="m 70.593104,729.86411 h 11.338"
       id="path69" />
    <path
       style="fill:none;stroke:#000000"
       d="m 81.931104,819.62311 v -89.759"
       id="path70" />
    <path
       style="fill:none;stroke:#000000"
       d="m 70.593104,819.62311 h 11.338"
       id="path71" />
    <path
       style="fill:none;stroke:#000000"
       d="m 70.593104,895.21311 v -75.59"
       id="path72" />
    <path
       style="fill:none;stroke:#000000"
       d="m 81.931104,895.21311 h -11.338"
       id="path73" />
    <path
       style="fill:none;stroke:#000000"
       d="m 81.931104,984.98311 v -89.77"
       id="path74" />
    <path
       d="m 252.3504,911.84799 a 5.291339,5.291339 0 0 0 -10.58267,0 5.291339,5.291339 0 0 0 10.58267,0 z"
       style="fill:none;stroke:#000000"
       id="path75" />
    <path
       d="m 252.3504,802.9976 a 5.291339,5.291339 0 0 0 -10.58267,0 5.291339,5.291339 0 0 0 10.58267,0 z"
       style="fill:none;stroke:#000000"
       id="path76" />
  </g>
  <g
     id="g77" />
  <g
     id="g78" />
  <g
     id="g79" />
  <g
     id="g80" />
  <g
     id="g81" />
  <g
     id="g82" />
  <g
     id="g83" />
  <g
     id="g84" />
  <g
     id="g85" />
</svg>
